{
  "accessors": [
    {
      "bufferView": 2,
      "componentType": 5126,
      "count": 65532,
      "max": [
        124.67746734619141,
        525.9063720703125,
        146.63978576660156
      ],
      "min": [
        -105.10516357421875,
        38.843753814697266,
        18.345066070556641
      ],
      "type": "VEC3"
    },
    {
      "bufferView": 2,
      "byteOffset": 786384,
      "componentType": 5126,
      "count": 65532,
      "max": [
        0.99999988079071045,
        0.99999064207077026,
        0.99999934434890747
      ],
      "min": [
        -0.99999898672103882,
        -0.99997776746749878,
        -0.99999922513961792
      ],
      "type": "VEC3"
    },
    {
      "bufferView": 1,
      "componentType": 5126,
      "count": 65532,
      "max": [
        0.99562299251556396,
        0.99772900342941284
      ],
      "min": [
        0.0040029999800026417,
        0.0047900001518428326
      ],
      "type": "VEC2"
    },
    {
      "bufferView": 0,
      "componentType": 5125,
      "count": 315561,
      "max": [
        65531
      ],
      "min": [
        0
      ],
      "type": "SCALAR"
    },
    {
      "bufferView": 2,
      "byteOffset": 1572768,
      "componentType": 5126,
      "count": 65532,
      "max": [
        113.71575927734375,
        525.90521240234375,
        147.06956481933594
      ],
      "min": [
        -117.60923767089844,
        0.6618649959564209,
        -63.909049987792969
      ],
      "type": "VEC3"
    },
    {
      "bufferView": 2,
      "byteOffset": 2359152,
      "componentType": 5126,
      "count": 65532,
      "max": [
        0.99999845027923584,
        0.99999487400054932,
        0.99999362230300903
      ],
      "min": [
        -1,
        -0.99987137317657471,
        -0.99999898672103882
      ],
      "type": "VEC3"
    },
    {
      "bufferView": 1,
      "byteOffset": 524256,
      "componentType": 5126,
      "count": 65532,
      "max": [
        0.9958680272102356,
        0.99803102016448975
      ],
      "min": [
        0.0044709998182952404,
        0.0023620000574737787
      ],
      "type": "VEC2"
    },
    {
      "bufferView": 0,
      "byteOffset": 1262244,
      "componentType": 5125,
      "count": 311637,
      "max": [
        65531
      ],
      "min": [
        0
      ],
      "type": "SCALAR"
    },
    {
      "bufferView": 2,
      "byteOffset": 3145536,
      "componentType": 5126,
      "count": 65532,
      "max": [
        19.557331085205078,
        525.90997314453125,
        146.34127807617188
      ],
      "min": [
        -127.74915313720703,
        1.2290899753570557,
        -64.460289001464844
      ],
      "type": "VEC3"
    },
    {
      "bufferView": 2,
      "byteOffset": 3931920,
      "componentType": 5126,
      "count": 65532,
      "max": [
        0.9999961256980896,
        0.99999064207077026,
        0.99999988079071045
      ],
      "min": [
        -0.99999487400054932,
        -0.99988478422164917,
        -0.99999910593032837
      ],
      "type": "VEC3"
    },
    {
      "bufferView": 1,
      "byteOffset": 1048512,
      "componentType": 5126,
      "count": 65532,
      "max": [
        0.99584800004959106,
        0.9980199933052063
      ],
      "min": [
        0.0026950000319629908,
        0.0023550000041723251
      ],
      "type": "VEC2"
    },
    {
      "bufferView": 0,
      "byteOffset": 2508792,
      "componentType": 5125,
      "count": 302328,
      "max": [
        65531
      ],
      "min": [
        0
      ],
      "type": "SCALAR"
    },
    {
      "bufferView": 2,
      "byteOffset": 4718304,
      "componentType": 5126,
      "count": 65532,
      "max": [
        170.57450866699219,
        525.906982421875,
        97.179763793945312
      ],
      "min": [
        -171.73771667480469,
        45.152534484863281,
        -139.4315185546875
      ],
      "type": "VEC3"
    },
    {
      "bufferView": 2,
      "byteOffset": 5504688,
      "componentType": 5126,
      "count": 65532,
      "max": [
        0.99999713897705078,
        0.99995577335357666,
        0.99999988079071045
      ],
      "min": [
        -0.99999862909317017,
        -0.9999535083770752,
        -0.9999997615814209
      ],
      "type": "VEC3"
    },
    {
      "bufferView": 1,
      "byteOffset": 1572768,
      "componentType": 5126,
      "count": 65532,
      "max": [
        0.99584299325942993,
        0.99769800901412964
      ],
      "min": [
        0.002836999949067831,
        0.0040710000321269035
      ],
      "type": "VEC2"
    },
    {
      "bufferView": 0,
      "byteOffset": 3718104,
      "componentType": 5125,
      "count": 323163,
      "max": [
        65531
      ],
      "min": [
        0
      ],
      "type": "SCALAR"
    },
    {
      "bufferView": 2,
      "byteOffset": 6291072,
      "componentType": 5126,
      "count": 57786,
      "max": [
        170.57450866699219,
        525.88238525390625,
        146.00691223144531
      ],
      "min": [
        -150.94563293457031,
        5.2660470008850098,
        -138.95338439941406
      ],
      "type": "VEC3"
    },
    {
      "bufferView": 2,
      "byteOffset": 6984504,
      "componentType": 5126,
      "count": 57786,
      "max": [
        0.99999809265136719,
        0.99996376037597656,
        0.99999099969863892
      ],
      "min": [
        -0.99998176097869873,
        -0.99999624490737915,
        -0.99999278783798218
      ],
      "type": "VEC3"
    },
    {
      "bufferView": 1,
      "byteOffset": 2097024,
      "componentType": 5126,
      "count": 57786,
      "max": [
        0.996055006980896,
        0.99794602394104004
      ],
      "min": [
        0.0027050001081079245,
        0.0023439999204128981
      ],
      "type": "VEC2"
    },
    {
      "bufferView": 0,
      "byteOffset": 5010756,
      "componentType": 5125,
      "count": 245754,
      "max": [
        57785
      ],
      "min": [
        0
      ],
      "type": "SCALAR"
    }
  ],
  "asset": {
    "extras": {
      "author": "ali-rahimi-shahmirzadi (https://sketchfab.com/ali-rahimi-shahmirzadi)",
      "license": "CC-BY-4.0 (http://creativecommons.org/licenses/by/4.0/)",
      "source": "https://sketchfab.com/3d-models/soulless-1a18f6f206b14073884e1a9c31c03cbc",
      "title": "Soulless"
    },
    "generator": "Sketchfab-10.10.1-rc1",
    "version": "2.0"
  },
  "bufferViews": [
    {
      "buffer": 0,
      "byteLength": 5993772,
      "byteOffset": 0,
      "name": "floatBufferViews",
      "target": 34963
    },
    {
      "buffer": 0,
      "byteLength": 2559312,
      "byteOffset": 5993772,
      "byteStride": 8,
      "name": "floatBufferViews",
      "target": 34962
    },
    {
      "buffer": 0,
      "byteLength": 7677936,
      "byteOffset": 8553084,
      "byteStride": 12,
      "name": "floatBufferViews",
      "target": 34962
    }
  ],
  "buffers": [
    {
      "byteLength": 16231020,
      "uri": "scene.bin"
    }
  ],
  "images": [
    {
      "uri": "textures/lambert3_baseColor.png"
    },
    {
      "uri": "textures/lambert3_metallicRoughness.png"
    }
  ],
  "materials": [
    {
      "doubleSided": true,
      "name": "lambert3",
      "occlusionTexture": {
        "index": 1,
        "strength": 1,
        "texCoord": 0
      },
      "pbrMetallicRoughness": {
        "baseColorFactor": [
          0.23275662890879134,
          0.23275662890879134,
          0.23275662890879134,
          1
        ],
        "baseColorTexture": {
          "index": 0,
          "texCoord": 0
        },
        "metallicFactor": 0.85901446473195564,
        "metallicRoughnessTexture": {
          "index": 1,
          "texCoord": 0
        },
        "roughnessFactor": 1
      }
    }
  ],
  "meshes": [
    {
      "name": "Head1:Mesh_lambert3_0",
      "primitives": [
        {
          "attributes": {
            "NORMAL": 1,
            "POSITION": 0,
            "TEXCOORD_0": 2
          },
          "indices": 3,
          "material": 0,
          "mode": 4
        }
      ]
    },
    {
      "name": "Head1:Mesh_lambert3_0",
      "primitives": [
        {
          "attributes": {
            "NORMAL": 5,
            "POSITION": 4,
            "TEXCOORD_0": 6
          },
          "indices": 7,
          "material": 0,
          "mode": 4
        }
      ]
    },
    {
      "name": "Head1:Mesh_lambert3_0",
      "primitives": [
        {
          "attributes": {
            "NORMAL": 9,
            "POSITION": 8,
            "TEXCOORD_0": 10
          },
          "indices": 11,
          "material": 0,
          "mode": 4
        }
      ]
    },
    {
      "name": "Head1:Mesh_lambert3_0",
      "primitives": [
        {
          "attributes": {
            "NORMAL": 13,
            "POSITION": 12,
            "TEXCOORD_0": 14
          },
          "indices": 15,
          "material": 0,
          "mode": 4
        }
      ]
    },
    {
      "name": "Head1:Mesh_lambert3_0",
      "primitives": [
        {
          "attributes": {
            "NORMAL": 17,
            "POSITION": 16,
            "TEXCOORD_0": 18
          },
          "indices": 19,
          "material": 0,
          "mode": 4
        }
      ]
    }
  ],
  "nodes": [
    {
      "children": [
        1
      ],
      "name": "RootNode (gltf orientation matrix)",
      "rotation": [
        -0.70710678118654746,
        -0,
        -0,
        0.70710678118654757
      ]
    },
    {
      "children": [
        2
      ],
      "name": "RootNode (model correction matrix)"
    },
    {
      "children": [
        3
      ],
      "matrix": [
        1,
        0,
        0,
        0,
        0,
        0,
        1,
        0,
        0,
        -1,
        0,
        0,
        0,
        0,
        0,
        1
      ],
      "name": "04f91d22b4034561a273ce6bf93a9315.fbx"
    },
    {
      "children": [
        4
      ],
      "name": "RootNode"
    },
    {
      "children": [
        5,
        6,
        7,
        8,
        9
      ],
      "name": "Head1:Mesh"
    },
    {
      "mesh": 0,
      "name": "Head1:Mesh_lambert3_0"
    },
    {
      "mesh": 1,
      "name": "Head1:Mesh_lambert3_0"
    },
    {
      "mesh": 2,
      "name": "Head1:Mesh_lambert3_0"
    },
    {
      "mesh": 3,
      "name": "Head1:Mesh_lambert3_0"
    },
    {
      "mesh": 4,
      "name": "Head1:Mesh_lambert3_0"
    }
  ],
  "samplers": [
    {
      "magFilter": 9729,
      "minFilter": 9987,
      "wrapS": 10497,
      "wrapT": 10497
    }
  ],
  "scene": 0,
  "scenes": [
    {
      "name": "OSG_Scene",
      "nodes": [
        0
      ]
    }
  ],
  "textures": [
    {
      "sampler": 0,
      "source": 0
    },
    {
      "sampler": 0,
      "source": 1
    }
  ]
}

